<?xml version="1.0" encoding="UTF-8"?><svg id="Layer_2" xmlns="http://www.w3.org/2000/svg" viewBox="0 0 424.66 158.45"><defs><style>.cls-1{fill:#000;stroke-width:0px;}</style></defs><g id="Artwork"><path id="IBM_" class="cls-1" d="M0,147h77v11H0v-11ZM0,137h77v-11H0v11ZM22,116h33v-11H22v11ZM22,95h33v-11H22v11ZM22,74h33v-11H22v11ZM55,42H22v11h33v-11ZM0,32h77v-11H0v11ZM0,11h77V0H0v11ZM88,137h117.37c1.97-3.4,3.47-7.09,4.43-11h-121.79v11ZM196.18,84h-86.18v11h95.36c-2.42-4.17-5.52-7.89-9.18-11ZM110,63v11h86.18c3.65-3.11,6.76-6.83,9.18-11h-95.36ZM205.37,21h-117.37v11h121.79c-.96-3.91-2.46-7.6-4.43-11ZM169,0h-81v11h109.33c-7.47-6.83-17.41-11-28.33-11ZM110,53h33v-11h-33v11ZM174,53h35.53c.95-3.51,1.47-7.19,1.47-11h-37v11ZM110,116h33v-11h-33v11ZM174,105v11h37c0-3.81-.52-7.49-1.47-11h-35.53ZM88,158h81c11,0,20.86-4.17,28.33-11h-109.33v11ZM308,158l3.82-11h-7.65l3.82,11ZM300.67,137h14.67l3.86-11h-22.39l3.86,11ZM293.29,116h29.41l3.86-11h-37.14l3.86,11ZM285.92,95h44.16l3.86-11h-51.88l3.86,11ZM242,53h59.43l-3.83-11h-55.61v11ZM321.87,32h74.13v-11h-70.3l-3.83,11ZM333,0l-3.82,11h66.82V0h-63ZM220,158h55v-11h-55v11ZM220,137h55v-11h-55v11ZM242,116h33v-11h-33v11ZM242,95h33v-11h-33v11ZM374,42h-55.61l-3.83,11h59.43v-11ZM341,74h33v-11h-62.91l-3.09,8.89-3.09-8.89h-62.91v11h33v-10.11s3.55,10.11,3.55,10.11h58.9l3.55-10.11v10.11ZM374,84h-33v11h33v-11ZM341,116h33v-11h-33v11ZM341,137h55v-11h-55v11ZM341,158h55v-11h-55v11ZM294.13,32l-3.83-11h-70.3v11h74.13ZM286.83,11l-3.83-11h-63v11h66.83ZM407.85,149.79c0-4.91,3.74-8.65,8.4-8.65s8.4,3.74,8.4,8.65-3.74,8.65-8.4,8.65-8.4-3.74-8.4-8.65ZM422.68,150.34v-1.09c0-3.53-2.77-6.3-6.43-6.3s-6.43,2.77-6.43,6.3v1.09c0,3.53,2.77,6.3,6.43,6.3s6.43-2.77,6.43-6.3ZM414.99,154.25h-2.14v-8.78h3.99c1.97,0,2.98,1.18,2.98,2.77,0,1.39-.63,2.27-1.6,2.65l1.97,3.36h-2.35l-1.64-3.02h-1.22v3.02ZM416.59,149.63c.67,0,1.05-.29,1.05-.92v-.63c0-.63-.38-.92-1.05-.92h-1.6v2.48h1.6Z"/></g></svg>